# File created by Blade
# Date/Time:  Wed Apr 08 14:10:43 2015
#---------------------------------------------------------
:version 1.10
:name HOM
:units
  mass 1.0
  length 1.000000
  angle deg
:documentation
     Acclaim Skeleton File
:root
   axis xyz
   order TX TY TZ RX RY RZ
   position 0.000000 0.000000 0.000000
   orientation 0 0 0
:bonedata
   begin
      id 1
      name Spine_dum
      direction 0.000000 1.000000 0.000000
      length 4.885285
      axis 0.0 0.0 0.0 xyz
   end
   begin
      id 2
      name LeftUpLeg_dum
      direction 1.000000 0.000000 0.000000
      length 2.672193
      axis 0.0 0.0 0.0 xyz
   end
   begin
      id 3
      name RightUpLeg_dum
      direction -1.000000 0.000000 0.000000
      length 2.672193
      axis 0.0 0.0 0.0 xyz
   end
   begin
      id 4
      name Spine
      direction 0.000000 1.000000 0.000000
      length 0.000000
      axis 0.0 0.0 0.0 xyz
      dof rx ry rz
   end
   begin
      id 5
      name Spine_dum1
      direction 0.000000 1.000000 0.000000
      length 16.494159
      axis 0.0 0.0 0.0 xyz
   end
   begin
      id 6
      name Spine_dum2
      direction 0.000000 1.000000 0.000000
      length 10.663448
      axis 0.0 0.0 0.0 xyz
   end
   begin
      id 7
      name Spine_dum3
      direction 0.000000 1.000000 0.000000
      length 10.663448
      axis 0.0 0.0 0.0 xyz
   end
   begin
      id 8
      name Head
      direction 0.000000 1.000000 0.000000
      length 4.527550
      axis 0.0 0.0 0.0 xyz
      dof rx ry rz
   end
   begin
      id 9
      name LeftShoulder
      direction 1.000000 0.000000 0.000000
      length 7.531907
      axis 0.0 0.0 -90.0 xyz
      dof rx ry rz
   end
   begin
      id 10
      name LeftArm
      direction 1.000000 0.000000 0.000000
      length 10.229199
      axis 0.0 0.0 -90.0 xyz
      dof rx ry rz
   end
   begin
      id 11
      name LeftForeArm
      direction 1.000000 0.000000 0.000000
      length 8.673495
      axis 0.0 0.0 -90.0 xyz
      dof ry rz rx
   end
   begin
      id 12
      name LeftHand
      direction 0.000000 0.000000 0.000000
      length 0.000000
      axis 0.0 0.0 -90.0 xyz
      dof rx ry rz
   end
   begin
      id 13
      name LeftHand_dum1
      direction 0.000000 0.000000 0.000000
      length 0.000000
      axis 0.0 0.0 -90.0 xyz
   end
   begin
      id 14
      name LeftHand_dum2
      direction 1.000000 0.000000 0.000000
      length 3.937000
      axis 0.0 0.0 -90.0 xyz
   end
   begin
      id 15
      name LeftHandThumb1
      direction 0.000000 0.000000 1.000000
      length 3.937000
      axis 0.0 0.0 -90.0 xyz
      dof rx rz ry
   end
   begin
      id 16
      name RightShoulder
      direction -1.000000 0.000000 0.000000
      length 7.531907
      axis 0.0 0.0 90.0 xyz
      dof rx ry rz
   end
   begin
      id 17
      name RightArm
      direction -1.000000 0.000000 0.000000
      length 10.229199
      axis 0.0 0.0 90.0 xyz
      dof rx ry rz
   end
   begin
      id 18
      name RightForeArm
      direction -1.000000 0.000000 0.000000
      length 8.673495
      axis 0.0 0.0 90.0 xyz
      dof ry rz rx
   end
   begin
      id 19
      name RightHand
      direction 0.000000 0.000000 0.000000
      length 0.000000
      axis 0.0 0.0 90.0 xyz
      dof rx ry rz
   end
   begin
      id 20
      name RightHand_dum1
      direction 0.000000 0.000000 0.000000
      length 0.000000
      axis 0.0 0.0 90.0 xyz
   end
   begin
      id 21
      name RightHand_dum2
      direction -1.000000 0.000000 0.000000
      length 3.937000
      axis 0.0 0.0 90.0 xyz
   end
   begin
      id 22
      name RightHandThumb1
      direction 0.000000 0.000000 1.000000
      length 3.937000
      axis 0.0 0.0 90.0 xyz
      dof rx rz ry
   end
   begin
      id 23
      name LeftUpLeg
      direction 0.000000 -1.000000 0.000000
      length 16.263388
      axis 0.0 0.0 0.0 xyz
      dof rx ry rz
   end
   begin
      id 24
      name LeftLeg
      direction 0.000000 -1.000000 0.000000
      length 14.328163
      axis 0.0 0.0 0.0 xyz
      dof rx ry rz
   end
   begin
      id 25
      name LeftFoot
      direction 0.000000 -0.258819 0.965926
      length 5.031290
      axis 15.0 0.0 0.0 xyz
      dof rx ry rz
   end
   begin
      id 26
      name LeftToeBase
      direction 0.000000 0.000000 1.000000
      length 2.952750
      axis 0.0 0.0 0.0 xyz
      dof rx ry rz
   end
   begin
      id 27
      name RightUpLeg
      direction 0.000000 -1.000000 0.000000
      length 16.263388
      axis 0.0 0.0 0.0 xyz
      dof rx ry rz
   end
   begin
      id 28
      name RightLeg
      direction 0.000000 -1.000000 0.000000
      length 14.328163
      axis 0.0 0.0 0.0 xyz
      dof rx ry rz
   end
   begin
      id 29
      name RightFoot
      direction 0.000000 -0.258819 0.965926
      length 5.031290
      axis 15.0 0.0 0.0 xyz
      dof rx ry rz
   end
   begin
      id 30
      name RightToeBase
      direction 0.000000 0.000000 1.000000
      length 2.952750
      axis 0.0 0.0 0.0 xyz
      dof rx ry rz
   end
:hierarchy
   begin
      root Spine_dum LeftUpLeg_dum RightUpLeg_dum
      Spine_dum Spine
      LeftUpLeg_dum LeftUpLeg
      RightUpLeg_dum RightUpLeg
      Spine Spine_dum1 Spine_dum2 Spine_dum3
      Spine_dum1 Head
      Spine_dum2 LeftShoulder
      Spine_dum3 RightShoulder
      LeftShoulder LeftArm
      LeftArm LeftForeArm
      LeftForeArm LeftHand
      LeftHand LeftHand_dum1 LeftHand_dum2
      LeftHand_dum1 LeftHandThumb1
      RightShoulder RightArm
      RightArm RightForeArm
      RightForeArm RightHand
      RightHand RightHand_dum1 RightHand_dum2
      RightHand_dum1 RightHandThumb1
      LeftUpLeg LeftLeg
      LeftLeg LeftFoot
      LeftFoot LeftToeBase
      RightUpLeg RightLeg
      RightLeg RightFoot
      RightFoot RightToeBase
   end

# File created by Blade
# Date/Time:  Wed Apr 08 14:10:35 2015
# Frame Rate: 120.000 fps
#------------------------------------------------------
:FULLY-SPECIFIED
:DEGREES
151
root 0.498615 32.781166 -18.772018 9.037846 3.160696 -4.289497
Spine -6.575204 -7.453289 2.232454
Head 19.982733 -5.499574 1.892252
LeftShoulder -14.146511 46.300110 6.420855
LeftArm 59.442857 22.346664 -64.642440
LeftForeArm -1.076655 -0.000000 14.822075
LeftHand 4.311911 -0.000000 -12.440104
LeftHandThumb1 -26.253704 0.000000 33.147579
RightShoulder -2.816955 -9.415198 -12.446719
RightArm 18.272184 -22.218997 87.204400
RightForeArm 3.355959 0.000000 15.020561
RightHand 0.567196 0.000000 14.565223
RightHandThumb1 -24.326973 -0.000000 -32.862282
LeftUpLeg -11.904828 -1.985418 1.721054
LeftLeg 12.565314 -0.000000 -0.000000
LeftFoot -13.979245 10.293828 -18.062041
LeftToeBase -6.942473 -0.000000 0.000000
RightUpLeg -6.945897 3.488099 5.497890
RightLeg -4.543944 -0.000000 0.000000
RightFoot -1.577823 -16.210295 5.999199
RightToeBase -4.951972 -0.000000 0.000000
152
root 0.533553 32.784221 -18.811781 9.142156 3.107421 -4.343966
Spine -6.529023 -7.422272 2.247810
Head 19.883172 -5.502440 1.896855
LeftShoulder -14.276781 46.389830 6.285808
LeftArm 59.393992 21.934820 -64.766970
LeftForeArm -1.484065 -0.000000 15.378023
LeftHand 4.508621 -0.000000 -12.440886
LeftHandThumb1 -26.253704 0.000000 33.147579
RightShoulder -2.796136 -9.402074 -12.451357
RightArm 18.434438 -22.373331 86.961496
RightForeArm 3.355876 0.000000 15.399778
RightHand 0.317228 -0.000000 14.977494
RightHandThumb1 -24.326973 -0.000000 -32.862282
LeftUpLeg -11.928612 -1.906577 1.714342
LeftLeg 12.271512 -0.000000 -0.000000
LeftFoot -13.841776 10.256037 -18.003599
LeftToeBase -6.910134 -0.000000 0.000000
RightUpLeg -7.201971 3.530560 5.479677
RightLeg -4.391284 -0.000000 0.000000
RightFoot -1.512303 -16.220340 5.909992
RightToeBase -5.004906 -0.000000 0.000000
153
root 0.563486 32.787465 -18.849488 9.254409 3.046500 -4.407420
Spine -6.501355 -7.337948 2.242290
Head 19.798552 -5.565025 1.946443
LeftShoulder -14.299055 46.406223 6.266273
LeftArm 59.232777 21.525039 -64.997310
LeftForeArm -2.180227 -0.000000 15.923469
LeftHand 4.890436 -0.000000 -13.152792
LeftHandThumb1 -26.253704 0.000000 33.147579
RightShoulder -2.827531 -9.386350 -12.404474
RightArm 18.593536 -22.521380 86.696336
RightForeArm 3.393861 -0.000000 15.711607
RightHand 0.331141 -0.000000 14.860466
RightHandThumb1 -24.326973 -0.000000 -32.862282
LeftUpLeg -11.983286 -1.702400 1.712189
LeftLeg 12.032374 -0.000000 -0.000000
LeftFoot -13.707656 10.109737 -17.897189
LeftToeBase -6.846114 -0.000000 0.000000
RightUpLeg -7.446442 3.628266 5.468815
RightLeg -4.273736 -0.000000 0.000000
RightFoot -1.439706 -16.267341 5.874942
RightToeBase -5.076980 -0.000000 0.000000
154
root 0.596482 32.789794 -18.887876 9.367995 2.990598 -4.463069
Spine -6.469313 -7.302879 2.258781
Head 19.692417 -5.572357 1.954087
LeftShoulder -14.414478 46.381879 6.162233
LeftArm 59.040648 21.139048 -65.234897
LeftForeArm -2.734711 0.000000 16.454230
LeftHand 4.985820 -0.000000 -12.984672
LeftHandThumb1 -26.253704 0.000000 33.147579
RightShoulder -2.859172 -9.335399 -12.393004
RightArm 18.791687 -22.706992 86.424618
RightForeArm 3.634372 -0.000000 15.925041
RightHand 0.677378 -0.000000 14.603282
RightHandThumb1 -24.326973 -0.000000 -32.862282
LeftUpLeg -12.070117 -1.528356 1.694319
LeftLeg 11.849597 -0.000000 -0.000000
LeftFoot -13.557688 10.015231 -17.758251
LeftToeBase -6.878931 -0.000000 0.000000
RightUpLeg -7.680979 3.748233 5.438720
RightLeg -4.180707 -0.000000 0.000000
RightFoot -1.360808 -16.343650 5.833057
RightToeBase -5.130716 -0.000000 0.000000
155
root 0.627060 32.792559 -18.927119 9.502549 2.967855 -4.512113
Spine -6.470392 -7.272262 2.257622
Head 19.623372 -5.612370 1.978351
LeftShoulder -14.477978 46.424256 6.105659
LeftArm 58.898177 20.675647 -65.555830
LeftForeArm -3.215410 0.000000 16.913623
LeftHand 5.066502 -0.000000 -12.881038
LeftHandThumb1 -26.253704 0.000000 33.147579
RightShoulder -2.890459 -9.233377 -12.355973
RightArm 18.917241 -22.902831 86.156810
RightForeArm 3.929267 -0.000000 16.077109
RightHand 0.639931 -0.000000 14.778517
RightHandThumb1 -24.326973 -0.000000 -32.862282
LeftUpLeg -12.188116 -1.407381 1.684095
LeftLeg 11.676298 -0.000000 -0.000000
LeftFoot -13.425926 9.926561 -17.657267
LeftToeBase -6.861423 -0.000000 0.000000
RightUpLeg -7.932402 3.803119 5.414703
RightLeg -4.098562 -0.000000 0.000000
RightFoot -1.275708 -16.381072 5.788823
RightToeBase -5.185500 -0.000000 0.000000
156
root 0.656647 32.796392 -18.968625 9.649352 2.889440 -4.569249
Spine -6.476425 -7.181893 2.247275
Head 19.553685 -5.638725 2.037253
LeftShoulder -14.577165 46.493916 6.038187
LeftArm 58.762904 20.119544 -66.024057
LeftForeArm -3.066872 -0.000000 17.342273
LeftHand 4.948431 -0.000000 -11.843053
LeftHandThumb1 -26.253704 0.000000 33.147579
RightShoulder -2.918962 -9.160240 -12.298852
RightArm 19.073581 -23.029777 85.883571
RightForeArm 4.019276 0.000000 16.199722
RightHand 0.507335 -0.000000 14.969780
RightHandThumb1 -24.326973 -0.000000 -32.862282
LeftUpLeg -12.328171 -1.264047 1.675903
LeftLeg 11.522435 -0.000000 -0.000000
LeftFoot -13.292687 9.877348 -17.605290
LeftToeBase -6.952845 -0.000000 0.000000
RightUpLeg -8.204373 3.647212 5.436712
RightLeg -4.017976 -0.000000 0.000000
RightFoot -1.125107 -16.158963 5.708238
RightToeBase -5.298733 -0.000000 0.000000
157
root 0.685675 32.799086 -19.006154 9.768560 2.868398 -4.630257
Spine -6.467093 -7.152828 2.262387
Head 19.493415 -5.683580 2.059968
LeftShoulder -14.629980 46.516720 5.986353
LeftArm 58.630699 19.656109 -66.347321
LeftForeArm -3.551836 -0.000000 17.705032
LeftHand 5.247883 -0.000000 -12.503504
LeftHandThumb1 -26.253704 0.000000 33.147579
RightShoulder -2.937005 -9.096352 -12.276240
RightArm 19.248344 -23.151806 85.631158
RightForeArm 4.134533 -0.000000 16.281894
RightHand 0.571021 -0.000000 14.892803
RightHandThumb1 -24.326973 -0.000000 -32.862282
LeftUpLeg -12.443724 -1.241779 1.688633
LeftLeg 11.378978 -0.000000 -0.000000
LeftFoot -13.195147 9.891773 -17.525526
LeftToeBase -6.952617 -0.000000 0.000000
RightUpLeg -8.430844 3.636072 5.438508
RightLeg -3.952553 -0.000000 0.000000
RightFoot -1.009981 -16.135818 5.654202
RightToeBase -5.407666 -0.000000 0.000000
158
root 0.714205 32.801477 -19.045866 9.890518 2.840490 -4.661643
Spine -6.450540 -7.133818 2.232391
Head 19.430481 -5.680065 2.102653
LeftShoulder -14.655366 46.494390 5.992787
LeftArm 58.448885 19.225267 -66.696057
LeftForeArm -3.890669 -0.000000 18.096917
LeftHand 5.342811 -0.000000 -12.379579
LeftHandThumb1 -26.253704 0.000000 33.147579
RightShoulder -2.946138 -8.997374 -12.249936
RightArm 19.387907 -23.199253 85.433244
RightForeArm 4.249518 -0.000000 16.356486
RightHand 0.826882 -0.000000 14.584157
RightHandThumb1 -24.326973 -0.000000 -32.862282
LeftUpLeg -12.571427 -1.225383 1.674405
LeftLeg 11.253127 -0.000000 -0.000000
LeftFoot -13.090338 9.889996 -17.482603
LeftToeBase -6.913152 -0.000000 0.000000
RightUpLeg -8.664133 3.707428 5.398480
RightLeg -3.879654 -0.000000 0.000000
RightFoot -0.929136 -16.199912 5.598577
RightToeBase -5.399459 -0.000000 0.000000
159
root 0.743995 32.804029 -19.078323 9.964944 2.819288 -4.699552
Spine -6.407011 -7.098580 2.222818
Head 19.406403 -5.707823 2.106200
LeftShoulder -14.682177 46.532802 5.977583
LeftArm 58.380317 18.803824 -66.966011
LeftForeArm -4.186481 -0.000000 18.384783
LeftHand 5.532855 -0.000000 -11.987252
LeftHandThumb1 -26.253704 0.000000 33.147579
RightShoulder -2.941584 -8.913852 -12.244225
RightArm 19.497894 -23.242540 85.249012
RightForeArm 4.116132 -0.000000 16.433485
RightHand 0.723365 -0.000000 14.591280
RightHandThumb1 -24.326973 -0.000000 -32.862282
LeftUpLeg -12.645046 -1.192107 1.657982
LeftLeg 11.132418 -0.000000 -0.000000
LeftFoot -12.966447 9.903535 -17.361051
LeftToeBase -7.037924 -0.000000 0.000000
RightUpLeg -8.820511 3.790936 5.359662
RightLeg -3.838103 -0.000000 0.000000
RightFoot -0.842750 -16.264652 5.567106
RightToeBase -5.383944 -0.000000 0.000000
160
root 0.773800 32.805822 -19.112693 10.038993 2.787323 -4.717312
Spine -6.362225 -7.072972 2.182676
Head 19.387647 -5.744487 2.128836
LeftShoulder -14.710046 46.586479 5.979192
LeftArm 58.414286 18.521958 -67.038721
LeftForeArm -5.055405 -0.000000 18.604731
LeftHand 5.622092 0.000000 -11.247431
LeftHandThumb1 -26.253704 0.000000 33.147579
RightShoulder -2.902209 -8.836747 -12.239051
RightArm 19.615188 -23.123971 85.132855
RightForeArm 3.882144 -0.000000 16.456803
RightHand 1.083127 0.000000 14.164897
RightHandThumb1 -24.326973 -0.000000 -32.862282
LeftUpLeg -12.719174 -1.198443 1.624623
LeftLeg 11.013556 -0.000000 -0.000000
LeftFoot -12.848861 9.952247 -17.269935
LeftToeBase -7.145396 -0.000000 0.000000
RightUpLeg -9.012755 3.806545 5.312797
RightLeg -3.724725 -0.000000 0.000000
RightFoot -0.802873 -16.251114 5.553241
RightToeBase -5.488471 -0.000000 0.000000
161
root 0.803201 32.808132 -19.148366 10.104491 2.733613 -4.734092
Spine -6.297626 -7.024880 2.138255
Head 19.353321 -5.735241 2.147147
LeftShoulder -14.728337 46.634738 5.998368
LeftArm 58.474255 18.189210 -67.143104
LeftForeArm -5.319374 -0.000000 18.756624
LeftHand 5.749456 -0.000000 -10.901663
LeftHandThumb1 -26.253704 0.000000 33.147579
RightShoulder -2.862463 -8.762302 -12.252050
RightArm 19.723122 -23.077914 85.007012
RightForeArm 3.555438 0.000000 16.539727
RightHand 1.137598 -0.000000 13.919962
RightHandThumb1 -24.326973 -0.000000 -32.862282
LeftUpLeg -12.778261 -1.187102 1.584192
LeftLeg 10.872105 -0.000000 -0.000000
LeftFoot -12.714376 10.036699 -17.141377
LeftToeBase -7.226626 -0.000000 0.000000
RightUpLeg -9.177060 3.860947 5.256955
RightLeg -3.659843 -0.000000 0.000000
RightFoot -0.728574 -16.255958 5.564590
RightToeBase -5.498182 -0.000000 0.000000
